<svg width="30" height="30" viewBox="0 0 30 30" fill="none" xmlns="http://www.w3.org/2000/svg">
<path d="M15.6097 8.48902C15.3552 8.23437 14.9424 8.23437 14.6875 8.48902C14.4329 8.74347 14.4329 9.15649 14.6875 9.41114L19.6261 14.3497H6.50443C6.14324 14.3497 5.85028 14.6427 5.85028 15.0039C5.85028 15.3653 6.14324 15.658 6.50443 15.658H19.6196L14.681 20.5966C14.5585 20.7187 14.4896 20.8849 14.4896 21.0578C14.4896 21.2309 14.5585 21.3967 14.681 21.519C14.8035 21.6425 14.9713 21.7109 15.1454 21.7087C15.319 21.7079 15.4855 21.6398 15.6097 21.519L21.6603 15.4685C21.7834 15.3452 21.852 15.1778 21.8502 15.0039C21.849 14.8304 21.781 14.6644 21.6603 14.5397L15.6097 8.48902Z" fill="black"/>
<path d="M15.008 0.940379C9.31974 0.939355 4.19123 4.36561 2.01449 9.62094C-0.161843 14.8765 1.04197 20.9255 5.06541 24.9465C10.5567 30.4378 19.4596 30.4378 24.9507 24.9465C30.4418 19.4555 30.4418 10.5527 24.9507 5.06134C22.3196 2.41524 18.7395 0.931365 15.008 0.940379ZM15.008 27.7593C7.9762 27.7593 2.25275 22.0357 2.25275 15.0039C2.25275 7.97214 7.9762 2.24868 15.008 2.24868C22.0397 2.24868 27.7634 7.97214 27.7634 15.0039C27.7634 22.0357 22.0397 27.7593 15.008 27.7593Z" fill="black"/>
</svg>
