<svg width="30" height="30" viewBox="0 0 30 30" fill="none" xmlns="http://www.w3.org/2000/svg">
<path d="M14.3904 21.511C14.6448 21.7656 15.0576 21.7656 15.3125 21.511C15.5671 21.2565 15.5671 20.8435 15.3125 20.5889L10.3739 15.6503H23.4956C23.8568 15.6503 24.1497 15.3573 24.1497 14.9961C24.1497 14.6347 23.8568 14.342 23.4956 14.342H10.3804L15.319 9.40336C15.4415 9.28126 15.5104 9.11511 15.5104 8.9422C15.5104 8.76908 15.4415 8.60334 15.319 8.48104C15.1965 8.3575 15.0287 8.28907 14.8546 8.29133C14.6811 8.29215 14.5145 8.36016 14.3904 8.48104L8.33972 14.5315C8.2166 14.6548 8.14797 14.8222 8.14981 14.9961C8.15104 15.1696 8.21906 15.3356 8.33972 15.4603L14.3904 21.511Z" fill="black"/>
<path d="M14.9921 29.0596C20.6803 29.0606 25.8088 25.6344 27.9855 20.3791C30.1619 15.1235 28.958 9.07452 24.9346 5.05353C19.4433 -0.437809 10.5404 -0.437809 5.04931 5.05353C-0.441822 10.5445 -0.441822 19.4473 5.04931 24.9387C7.68045 27.5848 11.2606 29.0686 14.9921 29.0596ZM14.9921 2.24067C22.0238 2.24067 27.7473 7.96433 27.7473 14.9961C27.7473 22.0279 22.0238 27.7513 14.9921 27.7513C7.9603 27.7513 2.23665 22.0279 2.23665 14.9961C2.23665 7.96433 7.9603 2.24067 14.9921 2.24067Z" fill="black"/>
</svg>
